<?xml version="1.0" encoding="UTF-8" standalone="no"?><!-- Generator: Gravit.io --><svg xmlns="http://www.w3.org/2000/svg" xmlns:xlink="http://www.w3.org/1999/xlink" style="isolation:isolate" viewBox="0 0 800 600" width="800pt" height="600pt"><defs><clipPath id="_clipPath_mb4d4M8PbYYixdxVGTyvRDEQGOOaWv5N"><rect width="800" height="600"/></clipPath></defs><g clip-path="url(#_clipPath_mb4d4M8PbYYixdxVGTyvRDEQGOOaWv5N)"><text transform="matrix(1,0,0,1,49.527,557.272)" style="font-family:'Roboto';font-weight:700;font-size:130px;font-style:normal;fill:#ffa733;stroke:none;">Burger Barn</text><g><g filter="url(#DStywVNV6I5athdc1a18PVqhi9no5Ciy)"><path d=" M 634.816 295.084 C 634.816 300.125 632.8 304.684 629.541 307.984 C 626.276 311.284 621.773 313.325 616.8 313.325 L 408.349 313.325 C 398.403 313.325 390.333 305.16 390.333 295.084 C 390.333 292.385 390.91 289.828 391.946 287.526 C 392.848 285.525 394.091 283.722 395.609 282.185 C 398.873 278.885 403.376 276.844 408.349 276.844 L 616.801 276.844 C 624.087 276.844 630.365 281.221 633.204 287.526 C 634.24 289.828 634.816 292.385 634.816 295.084 Z " fill="rgb(136,77,0)"/><path d=" M 633.204 287.526 C 632.302 289.522 631.053 291.331 629.541 292.862 C 626.277 296.162 621.774 298.203 616.801 298.203 L 408.349 298.203 C 401.069 298.203 394.791 293.826 391.946 287.527 C 392.848 285.525 394.091 283.722 395.609 282.186 C 398.873 278.886 403.376 276.845 408.349 276.845 L 616.801 276.845 C 624.086 276.844 630.364 281.221 633.204 287.526 Z " fill="rgb(170,97,0)"/><path d=" M 470.672 397.896 C 470.73 397.897 470.789 397.897 470.848 397.897 L 554.302 397.897 C 580.814 397.897 604.816 392.187 622.193 380.598 C 639.566 369.014 650.312 351.551 650.312 328.049 C 650.312 325.43 649.668 322.947 648.504 320.712 C 645.368 314.673 638.479 310.478 630.488 310.478 L 470.672 310.478 L 470.672 397.896 L 470.672 397.896 Z " fill="rgb(255,167,51)"/><path d=" M 470.672 374.649 C 470.73 374.651 470.789 374.651 470.848 374.651 L 554.302 374.651 C 580.814 374.651 604.816 368.941 622.193 357.352 C 635.388 348.552 644.762 336.362 648.503 320.713 C 645.367 314.674 638.479 310.478 630.488 310.478 L 470.672 310.478 L 470.672 374.649 L 470.672 374.649 Z " fill="rgb(255,182,85)"/><path d=" M 589.184 269.19 L 542.579 316.375 C 541.409 317.555 540.16 318.598 538.838 319.5 C 528.971 326.263 515.452 325.226 506.71 316.375 L 460.105 269.19 L 589.184 269.19 L 589.184 269.19 Z " fill="rgb(238,191,0)"/><path d=" M 589.184 269.19 L 542.579 316.375 C 541.409 317.555 540.16 318.598 538.838 319.5 C 535.282 318.275 531.944 316.228 529.11 313.353 L 485.49 269.19 L 589.184 269.19 Z " fill="rgb(255,212,34)"/><path d=" M 645.081 275.772 C 645.081 278.244 644.678 280.773 643.805 283.24 C 640.383 292.907 631.221 296.66 624.081 291.319 L 615.518 284.918 C 609.543 280.445 601.921 282.276 597.597 289.227 L 597.233 289.811 C 593.083 296.49 585.847 298.475 579.939 294.563 L 560.764 281.868 C 556.34 278.942 551.037 279.259 546.848 282.712 L 531.481 295.368 C 527.068 299.002 521.446 299.155 516.915 295.759 L 499.386 282.605 C 494.906 279.242 489.351 279.35 484.954 282.888 L 468.994 295.72 C 464.71 299.161 459.322 299.36 454.893 296.247 L 434.228 281.709 C 430.162 278.851 425.262 278.772 421.14 281.499 L 401.864 294.262 C 389.028 295.935 382.785 286.393 382.785 286.393 C 379.71 280.983 379.402 274.571 381.065 269.19 C 383.042 262.76 387.831 257.805 394.058 257.805 L 631.098 257.805 C 637.202 257.805 642.08 262.687 644.086 269.162 C 644.734 271.236 645.081 273.476 645.081 275.772 Z " fill="rgb(109,200,42)"/><path d=" M 644.085 269.162 C 644.001 269.445 643.906 269.723 643.805 270.006 C 640.383 279.679 631.222 283.433 624.081 278.092 L 615.519 271.685 C 609.543 267.217 601.921 269.048 597.598 275.994 L 597.233 276.584 C 593.084 283.263 585.848 285.247 579.94 281.335 L 560.765 268.64 C 556.34 265.708 551.037 266.032 546.848 269.485 L 531.482 282.14 C 527.069 285.774 521.446 285.922 516.915 282.526 L 499.387 269.371 C 494.906 266.009 489.351 266.122 484.955 269.655 L 468.994 282.491 C 464.71 285.927 459.322 286.131 454.893 283.019 L 434.228 268.481 C 430.162 265.618 425.262 265.538 421.14 268.271 L 401.864 281.028 C 389.028 282.706 382.785 273.158 382.785 273.158 C 382.062 271.883 381.491 270.55 381.065 269.189 C 383.042 262.76 387.831 257.804 394.058 257.804 L 631.098 257.804 C 637.202 257.804 642.08 262.686 644.085 269.162 Z " fill="rgb(126,214,62)"/><path d=" M 384.846 246.136 C 384.806 248.024 385.053 249.844 385.534 251.562 C 387.701 259.205 394.657 264.796 402.9 264.796 C 435.27 264.796 521.485 264.058 534.489 264.495 C 534.78 264.506 535.071 264.518 535.356 264.523 C 551.776 265.152 555.517 267.817 555.517 276.679 L 555.517 309.106 C 555.517 310.773 556.184 312.287 557.264 313.381 C 558.345 314.475 559.835 315.15 561.481 315.15 C 564.78 315.15 567.451 317.854 567.451 321.194 L 567.451 335.318 C 567.451 336.752 567.619 338.142 567.944 339.48 C 569.786 347.203 576.67 352.935 584.935 352.935 L 585.378 352.935 C 594.775 352.935 602.38 345.207 602.352 335.692 L 602.274 310.127 C 602.268 308.165 601.478 306.384 600.207 305.103 C 598.93 303.816 597.177 303.022 595.234 303.022 C 591.347 303.022 588.194 299.83 588.194 295.895 L 588.194 276.679 C 588.194 270.114 593.447 264.796 599.932 264.796 L 621.897 264.796 C 631.781 264.796 640.098 256.897 640.299 246.89 C 640.501 236.622 632.336 228.23 622.238 228.23 L 403.259 228.23 C 393.369 228.23 385.041 236.128 384.846 246.136 Z " fill="rgb(255,53,1)"/><path d=" M 384.846 246.136 C 384.806 248.024 385.053 249.844 385.534 251.562 C 419.802 251.528 501.683 250.842 514.328 251.261 C 531.487 251.834 535.356 254.436 535.356 263.452 L 535.356 264.523 C 551.776 265.152 555.517 267.817 555.517 276.679 L 555.517 309.106 C 555.517 310.773 556.184 312.287 557.264 313.381 C 558.345 314.475 559.835 315.15 561.481 315.15 C 564.78 315.15 567.451 317.854 567.451 321.194 L 567.451 335.318 C 567.451 336.752 567.619 338.142 567.944 339.48 C 576.042 338.159 582.219 331.032 582.191 322.459 L 582.113 296.898 C 582.107 294.931 581.318 293.156 580.046 291.875 C 578.769 290.588 577.017 289.794 575.073 289.794 C 571.186 289.794 568.033 286.602 568.033 282.667 L 568.033 263.451 C 568.033 256.885 573.286 251.567 579.771 251.567 L 601.736 251.567 C 611.62 251.567 619.937 243.669 620.139 233.662 C 620.178 231.774 619.931 229.954 619.444 228.23 L 403.259 228.23 C 393.369 228.23 385.041 236.128 384.846 246.136 Z " fill="rgb(255,80,35)"/><path d=" M 536.986 209.644 L 497.028 250.116 C 493.024 254.17 488.303 257.056 483.274 258.763 C 470.875 263.004 456.628 260.118 446.761 250.116 L 406.787 209.644 L 536.986 209.644 Z " fill="rgb(238,191,0)"/><path d=" M 536.986 209.644 L 497.028 250.116 C 493.024 254.17 488.303 257.056 483.274 258.763 C 478.25 257.056 473.53 254.17 469.531 250.116 L 429.557 209.644 L 536.986 209.644 Z " fill="rgb(255,212,34)"/><path d=" M 650.312 215.337 C 650.312 215.637 650.301 215.932 650.284 216.227 C 650.066 220.031 648.453 223.462 645.955 225.991 C 643.261 228.718 639.543 230.402 635.432 230.402 L 389.718 230.402 C 381.502 230.401 374.838 223.654 374.838 215.337 C 374.838 197.284 383.104 183.693 395.587 173.469 C 405.717 165.169 418.631 159.085 432.15 154.623 C 469.974 142.155 512.575 142.387 512.575 142.387 C 512.575 142.387 650.312 141.633 650.312 215.337 Z " fill="rgb(255,167,51)"/><path d=" M 650.312 215.337 C 650.312 215.637 650.301 215.932 650.284 216.227 L 419.959 216.227 C 411.743 216.227 405.079 209.48 405.079 201.162 C 405.079 183.109 413.344 169.517 425.827 159.295 C 427.832 157.65 429.943 156.097 432.15 154.623 C 469.974 142.155 512.575 142.387 512.575 142.387 C 512.575 142.387 650.312 141.633 650.312 215.337 Z " fill="rgb(255,182,85)"/><g><path d=" M 586.609 168.742 C 588.997 171.301 588.884 175.336 586.357 177.755 C 583.829 180.173 579.844 180.059 577.456 177.5 C 575.067 174.941 570.671 166.075 573.199 163.656 C 575.726 161.237 584.22 166.183 586.609 168.742 Z " fill="rgb(255,245,204)"/><path d=" M 553.232 200.249 C 554.478 203.536 552.857 207.224 549.611 208.486 C 546.364 209.748 542.722 208.107 541.475 204.82 C 540.228 201.533 539.496 191.64 542.742 190.378 C 545.989 189.116 551.985 196.962 553.232 200.249 Z " fill="rgb(255,245,204)"/><path d=" M 518.872 174.028 C 518.872 177.55 516.052 180.403 512.575 180.403 C 509.097 180.403 506.278 177.549 506.278 174.028 C 506.278 170.507 509.098 161.006 512.575 161.006 C 516.053 161.006 518.872 170.507 518.872 174.028 Z " fill="rgb(255,245,204)"/><path d=" M 484.25 204.244 C 483.38 207.653 479.945 209.703 476.578 208.823 C 473.211 207.943 471.187 204.465 472.056 201.056 C 472.925 197.647 478.002 189.162 481.369 190.042 C 484.736 190.922 485.119 200.836 484.25 204.244 Z " fill="rgb(255,245,204)"/><path d=" M 449.608 176.475 C 448.092 179.643 444.326 180.968 441.196 179.433 C 438.067 177.898 436.758 174.085 438.274 170.916 C 439.791 167.748 446.419 160.44 449.549 161.976 C 452.679 163.512 451.124 173.307 449.608 176.475 Z " fill="rgb(255,245,204)"/></g></g><defs><filter id="DStywVNV6I5athdc1a18PVqhi9no5Ciy" x="-200%" y="-200%" width="400%" height="400%" filterUnits="objectBoundingBox" color-interpolation-filters="sRGB"><feGaussianBlur xmlns="http://www.w3.org/2000/svg" in="SourceGraphic" stdDeviation="4.293609062839028"/><feOffset xmlns="http://www.w3.org/2000/svg" dx="5" dy="5" result="pf_100_offsetBlur"/><feFlood xmlns="http://www.w3.org/2000/svg" flood-color="#000000" flood-opacity="0.4"/><feComposite xmlns="http://www.w3.org/2000/svg" in2="pf_100_offsetBlur" operator="in" result="pf_100_dropShadow"/><feBlend xmlns="http://www.w3.org/2000/svg" in="SourceGraphic" in2="pf_100_dropShadow" mode="normal"/></filter></defs><g filter="url(#6LowSM9qSxR2iy1oyA2YfXHu9rXwF3rY)"><path d=" M 496.6 398.625 L 178.831 398.625 L 178.831 218.265 L 217.093 135.74 C 217.894 134.014 219.166 132.572 220.751 131.598 L 332.665 62.777 C 335.59 60.979 339.22 60.979 342.144 62.777 L 454.059 131.599 C 455.626 132.562 456.888 133.982 457.69 135.684 L 495.645 216.204 C 496.274 217.538 496.6 219.003 496.6 220.489 L 496.6 398.625 Z " fill="rgb(36,132,73)"/><path d=" M 495.645 216.205 L 457.69 135.684 C 456.888 133.982 455.625 132.562 454.058 131.599 L 342.144 62.778 C 340.775 61.936 339.25 61.493 337.716 61.44 L 337.716 398.625 L 496.6 398.625 L 496.6 220.49 C 496.6 219.004 496.273 217.538 495.645 216.205 L 495.645 216.205 Z " fill="rgb(31,112,62)"/><path d=" M 296.771 242.529 C 294.89 242.529 293.359 240.933 293.359 238.973 L 293.359 162.019 C 293.359 160.058 294.89 158.463 296.771 158.463 L 378.66 158.463 C 380.542 158.463 382.072 160.058 382.072 162.019 L 382.072 238.973 C 382.072 240.933 380.542 242.529 378.66 242.529 L 296.771 242.529 Z " fill="rgb(200,255,255)"/><path d=" M 378.66 158.463 L 337.716 158.463 L 337.716 242.529 L 378.66 242.529 C 380.542 242.529 382.072 240.933 382.072 238.973 L 382.072 162.019 C 382.072 160.059 380.541 158.463 378.66 158.463 L 378.66 158.463 Z " fill="rgb(69,246,255)"/><path d=" M 378.66 249.64 L 296.771 249.64 C 291.118 249.64 286.535 244.864 286.535 238.973 L 286.535 162.019 C 286.535 156.127 291.118 151.351 296.771 151.351 L 378.66 151.351 C 384.314 151.351 388.896 156.127 388.896 162.019 L 388.896 238.973 C 388.896 244.864 384.313 249.64 378.66 249.64 Z  M 307.007 228.305 L 368.424 228.305 L 368.424 172.686 L 307.007 172.686 L 307.007 228.305 Z " fill="rgb(170,97,0)"/><path d=" M 378.66 151.352 L 337.716 151.352 L 337.716 172.687 L 368.424 172.687 L 368.424 228.306 L 337.716 228.306 L 337.716 249.641 L 378.66 249.641 C 384.314 249.641 388.896 244.865 388.896 238.973 L 388.896 162.019 C 388.896 156.127 384.313 151.352 378.66 151.352 Z " fill="rgb(136,77,0)"/><path d=" M 173.776 230.754 C 172.282 230.754 170.766 230.412 169.33 229.689 C 164.24 227.126 162.107 220.748 164.567 215.443 L 205.543 127.067 C 206.421 125.172 207.818 123.59 209.557 122.521 L 332.391 46.985 C 335.6 45.011 339.585 45.011 342.795 46.985 L 465.628 122.52 C 467.349 123.577 468.733 125.136 469.614 127.004 L 511.273 215.38 C 513.765 220.668 511.673 227.061 506.598 229.658 C 501.524 232.256 495.391 230.075 492.897 224.787 L 452.587 139.273 L 337.592 68.558 L 222.629 139.255 L 183 224.725 C 181.234 228.534 177.581 230.754 173.776 230.754 L 173.776 230.754 Z " fill="rgb(255,212,34)"/><path d=" M 511.271 215.38 L 469.613 127.004 C 468.733 125.136 467.347 123.577 465.627 122.52 L 342.795 46.985 C 341.227 46.021 339.473 45.531 337.716 45.509 L 337.716 68.634 L 452.587 139.273 L 492.896 224.787 C 495.39 230.075 501.523 232.256 506.598 229.658 C 511.671 227.061 513.764 220.669 511.271 215.38 L 511.271 215.38 Z " fill="rgb(238,191,0)"/><path d=" M 257.34 289.536 L 418.527 289.536 L 418.527 388.28 L 257.34 388.28 L 257.34 289.536 Z " fill="rgb(36,132,73)"/><path d=" M 337.716 289.536 L 418.527 289.536 L 418.527 388.28 L 337.716 388.28 L 337.716 289.536 Z " fill="rgb(31,112,62)"/><path d=" M 418.527 279.19 L 257.34 279.19 C 251.697 279.19 247.122 283.822 247.122 289.536 L 247.122 398.625 L 428.745 398.625 L 428.745 289.536 C 428.745 283.822 424.17 279.19 418.527 279.19 Z  M 318.196 338.908 L 267.558 369.929 L 267.558 307.887 L 318.196 338.908 Z  M 293.966 299.881 L 381.902 299.881 L 337.934 326.816 L 293.966 299.881 Z  M 337.934 350.999 L 381.901 377.934 L 293.966 377.934 L 337.934 350.999 Z  M 357.672 338.908 L 408.309 307.887 L 408.309 369.929 L 357.672 338.908 Z " fill="rgb(255,212,34)"/><path d=" M 418.527 279.19 L 337.716 279.19 L 337.716 299.881 L 381.902 299.881 L 337.934 326.816 L 337.715 326.682 L 337.715 351.133 L 337.934 350.999 L 381.901 377.934 L 337.716 377.934 L 337.716 398.625 L 428.745 398.625 L 428.745 289.536 C 428.745 283.822 424.17 279.19 418.527 279.19 L 418.527 279.19 Z  M 408.309 369.929 L 357.672 338.908 L 408.309 307.887 L 408.309 369.929 Z " fill="rgb(238,191,0)"/></g><defs><filter id="6LowSM9qSxR2iy1oyA2YfXHu9rXwF3rY" x="-200%" y="-200%" width="400%" height="400%" filterUnits="objectBoundingBox" color-interpolation-filters="sRGB"><feGaussianBlur xmlns="http://www.w3.org/2000/svg" in="SourceGraphic" stdDeviation="4.293609062839028"/><feOffset xmlns="http://www.w3.org/2000/svg" dx="5" dy="5" result="pf_100_offsetBlur"/><feFlood xmlns="http://www.w3.org/2000/svg" flood-color="#000000" flood-opacity="0.4"/><feComposite xmlns="http://www.w3.org/2000/svg" in2="pf_100_offsetBlur" operator="in" result="pf_100_dropShadow"/><feBlend xmlns="http://www.w3.org/2000/svg" in="SourceGraphic" in2="pf_100_dropShadow" mode="normal"/></filter></defs></g></g></svg>