<?xml version="1.0" encoding="UTF-8" standalone="no"?><!-- Generator: Gravit.io --><svg xmlns="http://www.w3.org/2000/svg" xmlns:xlink="http://www.w3.org/1999/xlink" style="isolation:isolate" viewBox="0 0 500 500" width="500pt" height="500pt"><defs><clipPath id="_clipPath_blbChnto8SAnrLKBRUoLGSE9muyVCgrL"><rect width="500" height="500"/></clipPath></defs><g clip-path="url(#_clipPath_blbChnto8SAnrLKBRUoLGSE9muyVCgrL)"><g filter="url(#q1tj4s574SXkczq2pVjicdPuPWa6LQLW)"><path d=" M 426.208 298.569 C 426.208 302.609 424.573 306.263 421.928 308.907 C 419.279 311.552 415.625 313.188 411.59 313.188 L 242.453 313.188 C 234.382 313.188 227.834 306.645 227.834 298.569 C 227.834 296.406 228.302 294.357 229.143 292.512 C 229.875 290.908 230.884 289.463 232.115 288.232 C 234.764 285.587 238.417 283.951 242.453 283.951 L 411.591 283.951 C 417.503 283.951 422.596 287.459 424.9 292.512 C 425.741 294.357 426.208 296.406 426.208 298.569 Z " fill="rgb(136,77,0)"/><path d=" M 424.9 292.512 C 424.168 294.112 423.155 295.561 421.928 296.788 C 419.279 299.433 415.626 301.069 411.591 301.069 L 242.453 301.069 C 236.545 301.069 231.452 297.561 229.143 292.513 C 229.875 290.909 230.883 289.464 232.115 288.232 C 234.764 285.587 238.417 283.952 242.453 283.952 L 411.591 283.952 C 417.502 283.951 422.596 287.459 424.9 292.512 Z " fill="rgb(170,97,0)"/><path d=" M 293.021 380.965 C 293.068 380.966 293.116 380.966 293.164 380.966 L 360.879 380.966 C 382.391 380.966 401.866 376.39 415.966 367.102 C 430.062 357.819 438.782 343.823 438.782 324.988 C 438.782 322.889 438.259 320.899 437.315 319.108 C 434.77 314.268 429.181 310.906 422.696 310.906 L 293.021 310.906 L 293.021 380.965 L 293.021 380.965 Z " fill="rgb(255,167,51)"/><path d=" M 293.021 362.335 C 293.068 362.336 293.116 362.336 293.164 362.336 L 360.879 362.336 C 382.391 362.336 401.866 357.76 415.966 348.472 C 426.672 341.419 434.279 331.65 437.314 319.108 C 434.77 314.269 429.181 310.906 422.696 310.906 L 293.021 310.906 L 293.021 362.335 L 293.021 362.335 Z " fill="rgb(255,182,85)"/><path d=" M 389.183 277.817 L 351.367 315.633 C 350.417 316.578 349.404 317.414 348.332 318.136 C 340.325 323.557 329.356 322.726 322.263 315.633 L 284.447 277.817 L 389.183 277.817 L 389.183 277.817 Z " fill="rgb(238,191,0)"/><path d=" M 389.183 277.817 L 351.367 315.633 C 350.417 316.578 349.404 317.414 348.332 318.136 C 345.446 317.155 342.738 315.514 340.438 313.21 L 305.045 277.817 L 389.183 277.817 Z " fill="rgb(255,212,34)"/><path d=" M 434.538 283.092 C 434.538 285.073 434.211 287.1 433.502 289.077 C 430.725 296.824 423.291 299.832 417.498 295.552 L 410.55 290.422 C 405.701 286.837 399.517 288.304 396.009 293.875 L 395.713 294.343 C 392.346 299.696 386.475 301.287 381.681 298.151 L 366.122 287.977 C 362.533 285.632 358.229 285.887 354.831 288.654 L 342.362 298.796 C 338.781 301.709 334.219 301.832 330.543 299.11 L 316.32 288.568 C 312.685 285.873 308.177 285.959 304.61 288.795 L 291.66 299.078 C 288.184 301.837 283.812 301.996 280.218 299.501 L 263.45 287.85 C 260.151 285.56 256.176 285.496 252.831 287.682 L 237.191 297.911 C 226.776 299.251 221.709 291.604 221.709 291.604 C 219.215 287.269 218.965 282.129 220.314 277.817 C 221.918 272.664 225.804 268.693 230.857 268.693 L 423.192 268.693 C 428.145 268.693 432.103 272.605 433.73 277.794 C 434.256 279.457 434.538 281.252 434.538 283.092 Z " fill="rgb(109,200,42)"/><path d=" M 433.729 277.794 C 433.661 278.021 433.584 278.244 433.502 278.471 C 430.726 286.223 423.292 289.232 417.498 284.951 L 410.55 279.816 C 405.702 276.236 399.517 277.703 396.009 283.27 L 395.714 283.742 C 392.346 289.095 386.475 290.686 381.682 287.55 L 366.123 277.376 C 362.533 275.027 358.23 275.286 354.831 278.053 L 342.362 288.195 C 338.782 291.108 334.22 291.226 330.543 288.504 L 316.321 277.962 C 312.685 275.268 308.178 275.359 304.611 278.189 L 291.66 288.477 C 288.184 291.231 283.812 291.394 280.218 288.9 L 263.45 277.249 C 260.151 274.954 256.176 274.89 252.831 277.08 L 237.191 287.304 C 226.776 288.649 221.709 280.997 221.709 280.997 C 221.123 279.975 220.66 278.907 220.314 277.816 C 221.918 272.664 225.804 268.692 230.857 268.692 L 423.192 268.692 C 428.144 268.692 432.102 272.605 433.729 277.794 Z " fill="rgb(126,214,62)"/><path d=" M 223.382 259.341 C 223.35 260.854 223.55 262.312 223.94 263.689 C 225.699 269.815 231.343 274.295 238.031 274.295 C 264.296 274.295 334.251 273.704 344.802 274.054 C 345.038 274.063 345.275 274.073 345.506 274.077 C 358.83 274.581 361.865 276.717 361.865 283.819 L 361.865 309.807 C 361.865 311.142 362.406 312.356 363.282 313.233 C 364.16 314.11 365.368 314.65 366.704 314.65 C 369.381 314.65 371.548 316.818 371.548 319.494 L 371.548 330.814 C 371.548 331.963 371.685 333.077 371.948 334.149 C 373.443 340.338 379.028 344.932 385.735 344.932 L 386.094 344.932 C 393.719 344.932 399.89 338.739 399.867 331.114 L 399.803 310.625 C 399.799 309.053 399.158 307.626 398.126 306.599 C 397.09 305.567 395.668 304.931 394.091 304.931 C 390.938 304.931 388.379 302.373 388.379 299.219 L 388.379 283.819 C 388.379 278.557 392.641 274.295 397.903 274.295 L 415.726 274.295 C 423.746 274.295 430.494 267.965 430.657 259.945 C 430.821 251.716 424.196 244.991 416.003 244.991 L 238.322 244.991 C 230.298 244.991 223.54 251.321 223.382 259.341 Z " fill="rgb(255,53,1)"/><path d=" M 223.382 259.341 C 223.35 260.854 223.55 262.312 223.94 263.689 C 251.745 263.662 318.184 263.112 328.444 263.448 C 342.367 263.907 345.506 265.993 345.506 273.218 L 345.506 274.077 C 358.83 274.581 361.865 276.717 361.865 283.819 L 361.865 309.807 C 361.865 311.142 362.406 312.356 363.282 313.233 C 364.16 314.11 365.368 314.65 366.704 314.65 C 369.381 314.65 371.548 316.818 371.548 319.494 L 371.548 330.814 C 371.548 331.963 371.685 333.077 371.948 334.149 C 378.519 333.09 383.531 327.378 383.508 320.508 L 383.445 300.023 C 383.44 298.446 382.8 297.024 381.768 295.997 C 380.732 294.966 379.31 294.33 377.733 294.33 C 374.579 294.33 372.021 291.771 372.021 288.618 L 372.021 273.218 C 372.021 267.956 376.283 263.694 381.545 263.694 L 399.367 263.694 C 407.387 263.694 414.135 257.364 414.299 249.344 C 414.331 247.831 414.131 246.372 413.735 244.991 L 238.322 244.991 C 230.298 244.991 223.54 251.321 223.382 259.341 Z " fill="rgb(255,80,35)"/><path d=" M 346.829 230.095 L 314.407 262.531 C 311.158 265.78 307.327 268.092 303.247 269.46 C 293.186 272.859 281.626 270.546 273.62 262.531 L 241.185 230.095 L 346.829 230.095 Z " fill="rgb(238,191,0)"/><path d=" M 346.829 230.095 L 314.407 262.531 C 311.158 265.78 307.327 268.092 303.247 269.46 C 299.171 268.092 295.34 265.78 292.096 262.531 L 259.66 230.095 L 346.829 230.095 Z " fill="rgb(255,212,34)"/><path d=" M 438.782 234.658 C 438.782 234.899 438.773 235.135 438.759 235.371 C 438.582 238.42 437.273 241.169 435.247 243.196 C 433.061 245.382 430.044 246.731 426.708 246.731 L 227.335 246.731 C 220.668 246.731 215.261 241.324 215.261 234.658 C 215.261 220.19 221.968 209.297 232.097 201.104 C 240.317 194.452 250.795 189.576 261.765 186 C 292.455 176.008 327.022 176.194 327.022 176.194 C 327.022 176.194 438.782 175.59 438.782 234.658 Z " fill="rgb(255,167,51)"/><path d=" M 438.782 234.658 C 438.782 234.899 438.773 235.135 438.759 235.371 L 251.872 235.371 C 245.206 235.371 239.799 229.964 239.799 223.297 C 239.799 208.829 246.506 197.937 256.634 189.744 C 258.261 188.426 259.974 187.182 261.764 186 C 292.455 176.008 327.022 176.194 327.022 176.194 C 327.022 176.194 438.782 175.59 438.782 234.658 Z " fill="rgb(255,182,85)"/><g><path d=" M 387.093 197.316 C 389.031 199.367 388.939 202.6 386.888 204.539 C 384.837 206.477 381.604 206.385 379.666 204.334 C 377.728 202.284 374.161 195.178 376.212 193.24 C 378.263 191.301 385.155 195.264 387.093 197.316 Z " fill="rgb(255,245,204)"/><path d=" M 360.011 222.566 C 361.022 225.2 359.707 228.156 357.072 229.168 C 354.438 230.179 351.483 228.864 350.471 226.229 C 349.46 223.595 348.865 215.667 351.499 214.655 C 354.134 213.644 358.999 219.932 360.011 222.566 Z " fill="rgb(255,245,204)"/><path d=" M 332.131 201.552 C 332.131 204.374 329.843 206.661 327.022 206.661 C 324.2 206.661 321.912 204.374 321.912 201.552 C 321.912 198.73 324.2 191.116 327.022 191.116 C 329.844 191.116 332.131 198.73 332.131 201.552 Z " fill="rgb(255,245,204)"/><path d=" M 304.038 225.768 C 303.333 228.5 300.546 230.143 297.814 229.437 C 295.082 228.732 293.439 225.945 294.144 223.213 C 294.85 220.481 298.969 213.68 301.701 214.386 C 304.433 215.091 304.744 223.036 304.038 225.768 Z " fill="rgb(255,245,204)"/><path d=" M 275.93 203.513 C 274.7 206.052 271.644 207.114 269.104 205.883 C 266.565 204.653 265.504 201.598 266.734 199.058 C 267.964 196.519 273.342 190.663 275.882 191.893 C 278.422 193.124 277.16 200.974 275.93 203.513 Z " fill="rgb(255,245,204)"/></g></g><defs><filter id="q1tj4s574SXkczq2pVjicdPuPWa6LQLW" x="-200%" y="-200%" width="400%" height="400%" filterUnits="objectBoundingBox" color-interpolation-filters="sRGB"><feGaussianBlur xmlns="http://www.w3.org/2000/svg" in="SourceGraphic" stdDeviation="4.293609062839028"/><feOffset xmlns="http://www.w3.org/2000/svg" dx="5" dy="5" result="pf_100_offsetBlur"/><feFlood xmlns="http://www.w3.org/2000/svg" flood-color="#000000" flood-opacity="0.4"/><feComposite xmlns="http://www.w3.org/2000/svg" in2="pf_100_offsetBlur" operator="in" result="pf_100_dropShadow"/><feBlend xmlns="http://www.w3.org/2000/svg" in="SourceGraphic" in2="pf_100_dropShadow" mode="normal"/></filter></defs><g filter="url(#egXwb1SPUPDMnXHrdwnKvtKBS7rh2Qh9)"><path d=" M 314.06 381.549 L 56.22 381.549 L 56.22 237.004 L 87.267 170.867 C 87.916 169.484 88.949 168.328 90.234 167.547 L 181.042 112.392 C 183.415 110.951 186.361 110.951 188.734 112.392 L 279.541 167.548 C 280.813 168.32 281.837 169.458 282.488 170.822 L 313.285 235.353 C 313.795 236.422 314.06 237.596 314.06 238.787 L 314.06 381.549 Z " fill="rgb(36,132,73)"/><path d=" M 313.285 235.353 L 282.487 170.822 C 281.837 169.458 280.812 168.32 279.541 167.548 L 188.734 112.394 C 187.623 111.719 186.385 111.364 185.14 111.321 L 185.14 381.549 L 314.06 381.549 L 314.06 238.787 C 314.06 237.597 313.794 236.422 313.285 235.353 L 313.285 235.353 Z " fill="rgb(31,112,62)"/><path d=" M 151.918 256.45 C 150.391 256.45 149.149 255.171 149.149 253.6 L 149.149 191.927 C 149.149 190.356 150.391 189.077 151.918 189.077 L 218.363 189.077 C 219.889 189.077 221.131 190.356 221.131 191.927 L 221.131 253.6 C 221.131 255.171 219.889 256.45 218.363 256.45 L 151.918 256.45 Z " fill="rgb(200,255,255)"/><path d=" M 218.362 189.078 L 185.14 189.078 L 185.14 256.45 L 218.363 256.45 C 219.889 256.45 221.131 255.171 221.131 253.6 L 221.131 191.927 C 221.131 190.356 219.889 189.078 218.362 189.078 L 218.362 189.078 Z " fill="rgb(69,246,255)"/><path d=" M 218.362 262.149 L 151.918 262.149 C 147.331 262.149 143.612 258.322 143.612 253.6 L 143.612 191.927 C 143.612 187.206 147.331 183.378 151.918 183.378 L 218.363 183.378 C 222.95 183.378 226.668 187.206 226.668 191.927 L 226.668 253.6 C 226.668 258.322 222.949 262.149 218.362 262.149 Z  M 160.223 245.051 L 210.057 245.051 L 210.057 200.476 L 160.223 200.476 L 160.223 245.051 Z " fill="rgb(170,97,0)"/><path d=" M 218.362 183.379 L 185.14 183.379 L 185.14 200.477 L 210.057 200.477 L 210.057 245.052 L 185.14 245.052 L 185.14 262.15 L 218.363 262.15 C 222.95 262.15 226.668 258.322 226.668 253.601 L 226.668 191.927 C 226.668 187.206 222.949 183.379 218.362 183.379 Z " fill="rgb(136,77,0)"/><path d=" M 52.119 247.013 C 50.907 247.013 49.677 246.739 48.511 246.16 C 44.381 244.106 42.651 238.994 44.647 234.743 L 77.895 163.916 C 78.607 162.398 79.741 161.13 81.152 160.273 L 180.82 99.737 C 183.423 98.155 186.657 98.155 189.261 99.737 L 288.929 160.272 C 290.325 161.12 291.448 162.369 292.163 163.866 L 325.965 234.693 C 327.987 238.931 326.289 244.054 322.172 246.135 C 318.055 248.217 313.078 246.469 311.055 242.231 L 278.348 173.699 L 185.04 117.026 L 91.758 173.684 L 59.604 242.182 C 58.17 245.234 55.206 247.013 52.119 247.013 L 52.119 247.013 Z " fill="rgb(255,212,34)"/><path d=" M 325.964 234.693 L 292.162 163.866 C 291.448 162.369 290.324 161.12 288.928 160.272 L 189.261 99.737 C 187.989 98.964 186.566 98.571 185.14 98.554 L 185.14 117.087 L 278.348 173.699 L 311.054 242.231 C 313.077 246.469 318.054 248.217 322.171 246.135 C 326.288 244.054 327.986 238.931 325.964 234.693 L 325.964 234.693 Z " fill="rgb(238,191,0)"/><path d=" M 119.923 294.123 L 250.711 294.123 L 250.711 373.258 L 119.923 373.258 L 119.923 294.123 Z " fill="rgb(36,132,73)"/><path d=" M 185.14 294.123 L 250.711 294.123 L 250.711 373.258 L 185.14 373.258 L 185.14 294.123 Z " fill="rgb(31,112,62)"/><path d=" M 250.711 285.832 L 119.923 285.832 C 115.345 285.832 111.632 289.544 111.632 294.123 L 111.632 381.549 L 259.002 381.549 L 259.002 294.123 C 259.002 289.544 255.29 285.832 250.711 285.832 Z  M 169.302 333.69 L 128.214 358.551 L 128.214 308.83 L 169.302 333.69 Z  M 149.642 302.414 L 220.993 302.414 L 185.317 324 L 149.642 302.414 Z  M 185.317 343.381 L 220.993 364.967 L 149.642 364.967 L 185.317 343.381 Z  M 201.333 333.69 L 242.42 308.83 L 242.42 358.551 L 201.333 333.69 Z " fill="rgb(255,212,34)"/><path d=" M 250.711 285.832 L 185.14 285.832 L 185.14 302.414 L 220.993 302.414 L 185.317 324 L 185.14 323.893 L 185.14 343.488 L 185.317 343.381 L 220.993 364.967 L 185.14 364.967 L 185.14 381.549 L 259.002 381.549 L 259.002 294.123 C 259.002 289.544 255.29 285.832 250.711 285.832 L 250.711 285.832 Z  M 242.42 358.551 L 201.333 333.69 L 242.42 308.83 L 242.42 358.551 Z " fill="rgb(238,191,0)"/></g><defs><filter id="egXwb1SPUPDMnXHrdwnKvtKBS7rh2Qh9" x="-200%" y="-200%" width="400%" height="400%" filterUnits="objectBoundingBox" color-interpolation-filters="sRGB"><feGaussianBlur xmlns="http://www.w3.org/2000/svg" in="SourceGraphic" stdDeviation="4.293609062839028"/><feOffset xmlns="http://www.w3.org/2000/svg" dx="5" dy="5" result="pf_100_offsetBlur"/><feFlood xmlns="http://www.w3.org/2000/svg" flood-color="#000000" flood-opacity="0.4"/><feComposite xmlns="http://www.w3.org/2000/svg" in2="pf_100_offsetBlur" operator="in" result="pf_100_dropShadow"/><feBlend xmlns="http://www.w3.org/2000/svg" in="SourceGraphic" in2="pf_100_dropShadow" mode="normal"/></filter></defs></g></svg>