<?xml version="1.0" encoding="UTF-8" standalone="no"?><!-- Generator: Gravit.io --><svg xmlns="http://www.w3.org/2000/svg" xmlns:xlink="http://www.w3.org/1999/xlink" style="isolation:isolate" viewBox="0 0 500 380"><defs><clipPath id="_clipPath_TdJrQL62NsPBgSLt5ntr5P0KyienjsFM"><rect width="500" height="380"/></clipPath></defs><g clip-path="url(#_clipPath_TdJrQL62NsPBgSLt5ntr5P0KyienjsFM)"><g><g filter="url(#GfbdUJLSG398r9ILJFOZTeF1TPB18NNG)"><path d=" M 471.286 257.009 C 471.286 262.049 469.27 266.608 466.011 269.908 C 462.746 273.208 458.243 275.249 453.27 275.249 L 244.819 275.249 C 234.873 275.249 226.803 267.085 226.803 257.009 C 226.803 254.31 227.38 251.753 228.416 249.45 C 229.318 247.449 230.561 245.646 232.078 244.109 C 235.343 240.809 239.846 238.768 244.819 238.768 L 453.27 238.768 C 460.556 238.768 466.834 243.145 469.673 249.45 C 470.709 251.753 471.286 254.31 471.286 257.009 Z " fill="rgb(136,77,0)"/><path d=" M 469.673 249.45 C 468.772 251.446 467.523 253.255 466.011 254.786 C 462.746 258.086 458.243 260.127 453.27 260.127 L 244.819 260.127 C 237.539 260.127 231.261 255.75 228.416 249.451 C 229.318 247.45 230.56 245.647 232.078 244.11 C 235.343 240.81 239.846 238.769 244.819 238.769 L 453.27 238.769 C 460.556 238.768 466.834 243.146 469.673 249.45 Z " fill="rgb(170,97,0)"/><path d=" M 307.141 359.82 C 307.2 359.822 307.258 359.822 307.317 359.822 L 390.772 359.822 C 417.283 359.822 441.286 354.112 458.663 342.522 C 476.035 330.939 486.782 313.475 486.782 289.973 C 486.782 287.354 486.138 284.871 484.974 282.636 C 481.837 276.597 474.949 272.402 466.957 272.402 L 307.141 272.402 L 307.141 359.82 L 307.141 359.82 Z " fill="rgb(255,167,51)"/><path d=" M 307.141 336.574 C 307.2 336.575 307.258 336.575 307.317 336.575 L 390.772 336.575 C 417.283 336.575 441.286 330.865 458.663 319.276 C 471.857 310.476 481.232 298.286 484.973 282.637 C 481.837 276.598 474.949 272.402 466.957 272.402 L 307.141 272.402 L 307.141 336.574 L 307.141 336.574 Z " fill="rgb(255,182,85)"/><path d=" M 425.654 231.114 L 379.049 278.3 C 377.879 279.479 376.629 280.522 375.308 281.424 C 365.44 288.188 351.922 287.151 343.18 278.3 L 296.574 231.114 L 425.654 231.114 L 425.654 231.114 Z " fill="rgb(238,191,0)"/><path d=" M 425.654 231.114 L 379.049 278.3 C 377.879 279.479 376.629 280.522 375.308 281.424 C 371.752 280.199 368.414 278.152 365.58 275.278 L 321.96 231.114 L 425.654 231.114 Z " fill="rgb(255,212,34)"/><path d=" M 481.551 237.697 C 481.551 240.169 481.148 242.697 480.274 245.164 C 476.853 254.831 467.691 258.585 460.551 253.243 L 451.988 246.842 C 446.012 242.369 438.39 244.2 434.067 251.152 L 433.703 251.736 C 429.553 258.415 422.317 260.399 416.409 256.487 L 397.234 243.792 C 392.81 240.866 387.506 241.184 383.318 244.637 L 367.951 257.292 C 363.538 260.926 357.915 261.08 353.384 257.683 L 335.856 244.529 C 331.376 241.167 325.82 241.274 321.424 244.812 L 305.464 257.644 C 301.179 261.086 295.792 261.284 291.362 258.171 L 270.697 243.633 C 266.632 240.776 261.732 240.696 257.61 243.424 L 238.334 256.187 C 225.498 257.86 219.254 248.317 219.254 248.317 C 216.18 242.908 215.872 236.495 217.535 231.114 C 219.512 224.685 224.3 219.729 230.528 219.729 L 467.568 219.729 C 473.672 219.729 478.55 224.611 480.555 231.086 C 481.204 233.161 481.551 235.401 481.551 237.697 Z " fill="rgb(109,200,42)"/><path d=" M 480.555 231.086 C 480.471 231.369 480.376 231.647 480.275 231.931 C 476.853 241.604 467.691 245.357 460.551 240.016 L 451.988 233.609 C 446.013 229.141 438.391 230.973 434.067 237.918 L 433.703 238.508 C 429.553 245.187 422.318 247.171 416.41 243.259 L 397.234 230.564 C 392.81 227.633 387.507 227.956 383.318 231.409 L 367.951 244.064 C 363.538 247.699 357.916 247.846 353.385 244.45 L 335.856 231.296 C 331.376 227.933 325.821 228.047 321.425 231.579 L 305.464 244.416 C 301.179 247.852 295.792 248.055 291.362 244.943 L 270.697 230.405 C 266.632 227.542 261.732 227.462 257.61 230.195 L 238.334 242.952 C 225.498 244.631 219.254 235.083 219.254 235.083 C 218.532 233.807 217.961 232.474 217.535 231.114 C 219.512 224.684 224.3 219.728 230.528 219.728 L 467.568 219.728 C 473.672 219.729 478.549 224.611 480.555 231.086 Z " fill="rgb(126,214,62)"/><path d=" M 221.315 208.06 C 221.276 209.948 221.522 211.768 222.004 213.486 C 224.171 221.129 231.127 226.72 239.37 226.72 C 271.74 226.72 357.955 225.983 370.958 226.419 C 371.249 226.431 371.54 226.442 371.826 226.447 C 388.246 227.077 391.987 229.741 391.987 238.604 L 391.987 271.03 C 391.987 272.697 392.653 274.211 393.734 275.305 C 394.815 276.4 396.305 277.074 397.951 277.074 C 401.25 277.074 403.921 279.779 403.921 283.118 L 403.921 297.242 C 403.921 298.677 404.089 300.066 404.414 301.404 C 406.256 309.127 413.139 314.859 421.405 314.859 L 421.847 314.859 C 431.245 314.859 438.85 307.131 438.822 297.617 L 438.743 272.051 C 438.738 270.089 437.948 268.309 436.677 267.027 C 435.4 265.74 433.647 264.947 431.704 264.947 C 427.817 264.947 424.664 261.754 424.664 257.819 L 424.664 238.604 C 424.664 232.038 429.917 226.72 436.402 226.72 L 458.367 226.72 C 468.251 226.72 476.567 218.822 476.769 208.814 C 476.971 198.546 468.806 190.154 458.708 190.154 L 239.729 190.154 C 229.839 190.154 221.511 198.053 221.315 208.06 Z " fill="rgb(255,53,1)"/><path d=" M 221.315 208.06 C 221.276 209.948 221.522 211.768 222.004 213.486 C 256.271 213.452 338.153 212.766 350.797 213.185 C 367.957 213.758 371.826 216.361 371.826 225.376 L 371.826 226.447 C 388.246 227.077 391.987 229.741 391.987 238.604 L 391.987 271.03 C 391.987 272.697 392.653 274.211 393.734 275.305 C 394.815 276.4 396.305 277.074 397.951 277.074 C 401.25 277.074 403.921 279.779 403.921 283.118 L 403.921 297.242 C 403.921 298.677 404.089 300.066 404.414 301.404 C 412.512 300.083 418.689 292.956 418.661 284.383 L 418.583 258.823 C 418.577 256.855 417.787 255.08 416.516 253.799 C 415.239 252.512 413.486 251.718 411.543 251.718 C 407.656 251.718 404.503 248.526 404.503 244.591 L 404.503 225.375 C 404.503 218.81 409.756 213.491 416.241 213.491 L 438.206 213.491 C 448.09 213.491 456.406 205.593 456.608 195.586 C 456.648 193.698 456.401 191.878 455.914 190.154 L 239.729 190.154 C 229.839 190.154 221.511 198.053 221.315 208.06 Z " fill="rgb(255,80,35)"/><path d=" M 373.456 171.568 L 333.498 212.04 C 329.494 216.094 324.773 218.98 319.744 220.687 C 307.345 224.928 293.098 222.042 283.23 212.04 L 243.257 171.568 L 373.456 171.568 Z " fill="rgb(238,191,0)"/><path d=" M 373.456 171.568 L 333.498 212.04 C 329.494 216.094 324.773 218.98 319.744 220.687 C 314.72 218.98 309.999 216.094 306.001 212.04 L 266.026 171.568 L 373.456 171.568 Z " fill="rgb(255,212,34)"/><path d=" M 486.782 177.261 C 486.782 177.562 486.771 177.856 486.754 178.151 C 486.536 181.956 484.923 185.386 482.425 187.915 C 479.731 190.642 476.013 192.326 471.902 192.326 L 226.187 192.326 C 217.972 192.326 211.307 185.579 211.307 177.261 C 211.307 159.208 219.573 145.617 232.056 135.394 C 242.187 127.093 255.101 121.009 268.62 116.547 C 306.444 104.079 349.045 104.311 349.045 104.311 C 349.045 104.311 486.782 103.557 486.782 177.261 Z " fill="rgb(255,167,51)"/><path d=" M 486.782 177.261 C 486.782 177.562 486.771 177.856 486.754 178.151 L 256.428 178.151 C 248.213 178.151 241.548 171.404 241.548 163.086 C 241.548 145.033 249.814 131.442 262.297 121.219 C 264.302 119.575 266.413 118.022 268.62 116.547 C 306.444 104.079 349.045 104.311 349.045 104.311 C 349.045 104.311 486.782 103.557 486.782 177.261 Z " fill="rgb(255,182,85)"/><g><path d=" M 423.078 130.667 C 425.467 133.226 425.354 137.261 422.827 139.679 C 420.299 142.097 416.314 141.983 413.925 139.424 C 411.537 136.866 407.141 127.999 409.668 125.58 C 412.196 123.162 420.69 128.107 423.078 130.667 Z " fill="rgb(255,245,204)"/><path d=" M 389.701 162.173 C 390.948 165.46 389.327 169.148 386.08 170.41 C 382.834 171.673 379.191 170.031 377.945 166.744 C 376.698 163.457 375.966 153.564 379.212 152.302 C 382.458 151.041 388.455 158.887 389.701 162.173 Z " fill="rgb(255,245,204)"/><path d=" M 355.341 135.953 C 355.341 139.474 352.522 142.328 349.045 142.328 C 345.567 142.328 342.748 139.473 342.748 135.953 C 342.748 132.431 345.567 122.931 349.045 122.931 C 352.523 122.93 355.341 132.431 355.341 135.953 Z " fill="rgb(255,245,204)"/><path d=" M 320.719 166.169 C 319.85 169.578 316.415 171.627 313.048 170.747 C 309.681 169.867 307.656 166.389 308.526 162.98 C 309.395 159.571 314.472 151.086 317.839 151.966 C 321.206 152.847 321.589 162.76 320.719 166.169 Z " fill="rgb(255,245,204)"/><path d=" M 286.078 138.399 C 284.562 141.567 280.796 142.892 277.666 141.357 C 274.536 139.822 273.228 136.009 274.744 132.84 C 276.26 129.672 282.888 122.365 286.019 123.9 C 289.148 125.436 287.594 135.231 286.078 138.399 Z " fill="rgb(255,245,204)"/></g></g><defs><filter id="GfbdUJLSG398r9ILJFOZTeF1TPB18NNG" x="-200%" y="-200%" width="400%" height="400%" filterUnits="objectBoundingBox" color-interpolation-filters="sRGB"><feGaussianBlur xmlns="http://www.w3.org/2000/svg" in="SourceGraphic" stdDeviation="4.293609062839028"/><feOffset xmlns="http://www.w3.org/2000/svg" dx="5" dy="5" result="pf_100_offsetBlur"/><feFlood xmlns="http://www.w3.org/2000/svg" flood-color="#000000" flood-opacity="0.4"/><feComposite xmlns="http://www.w3.org/2000/svg" in2="pf_100_offsetBlur" operator="in" result="pf_100_dropShadow"/><feBlend xmlns="http://www.w3.org/2000/svg" in="SourceGraphic" in2="pf_100_dropShadow" mode="normal"/></filter></defs><g filter="url(#XYiuwbMfcH3k9VIKtFopOJcaLMPgb4y6)"><path d=" M 333.07 360.549 L 15.3 360.549 L 15.3 180.189 L 53.563 97.664 C 54.363 95.938 55.636 94.497 57.22 93.522 L 169.135 24.701 C 172.059 22.903 175.69 22.903 178.614 24.701 L 290.529 93.523 C 292.095 94.486 293.358 95.906 294.16 97.608 L 332.115 178.128 C 332.744 179.462 333.07 180.928 333.07 182.413 L 333.07 360.549 Z " fill="rgb(36,132,73)"/><path d=" M 332.115 178.129 L 294.159 97.608 C 293.358 95.906 292.095 94.486 290.528 93.523 L 178.614 24.702 C 177.245 23.86 175.719 23.417 174.185 23.364 L 174.185 360.549 L 333.07 360.549 L 333.07 182.414 C 333.07 180.928 332.743 179.462 332.115 178.129 L 332.115 178.129 Z " fill="rgb(31,112,62)"/><path d=" M 133.241 204.453 C 131.359 204.453 129.829 202.858 129.829 200.897 L 129.829 123.943 C 129.829 121.982 131.359 120.387 133.241 120.387 L 215.13 120.387 C 217.011 120.387 218.542 121.982 218.542 123.943 L 218.542 200.897 C 218.542 202.858 217.011 204.453 215.13 204.453 L 133.241 204.453 Z " fill="rgb(200,255,255)"/><path d=" M 215.129 120.388 L 174.185 120.388 L 174.185 204.453 L 215.13 204.453 C 217.011 204.453 218.542 202.858 218.542 200.897 L 218.542 123.943 C 218.541 121.983 217.011 120.388 215.129 120.388 L 215.129 120.388 Z " fill="rgb(69,246,255)"/><path d=" M 215.129 211.564 L 133.241 211.564 C 127.588 211.564 123.005 206.788 123.005 200.897 L 123.005 123.943 C 123.005 118.052 127.588 113.275 133.241 113.275 L 215.13 113.275 C 220.783 113.275 225.366 118.052 225.366 123.943 L 225.366 200.897 C 225.366 206.788 220.783 211.564 215.129 211.564 Z  M 143.477 190.229 L 204.893 190.229 L 204.893 134.61 L 143.477 134.61 L 143.477 190.229 Z " fill="rgb(170,97,0)"/><path d=" M 215.129 113.276 L 174.185 113.276 L 174.185 134.611 L 204.893 134.611 L 204.893 190.23 L 174.185 190.23 L 174.185 211.565 L 215.13 211.565 C 220.783 211.565 225.366 206.789 225.366 200.898 L 225.366 123.943 C 225.366 118.052 220.783 113.276 215.129 113.276 Z " fill="rgb(136,77,0)"/><path d=" M 10.246 192.678 C 8.752 192.678 7.235 192.336 5.799 191.613 C 0.71 189.05 -1.423 182.672 1.036 177.367 L 42.012 88.991 C 42.89 87.096 44.288 85.514 46.027 84.445 L 168.86 8.909 C 172.07 6.935 176.055 6.935 179.264 8.909 L 302.098 84.444 C 303.818 85.502 305.203 87.06 306.084 88.928 L 347.742 177.305 C 350.235 182.593 348.142 188.985 343.068 191.583 C 337.994 194.18 331.861 191.999 329.367 186.711 L 289.057 101.198 L 174.062 30.483 L 59.098 101.179 L 19.47 186.649 C 17.704 190.458 14.05 192.678 10.246 192.678 L 10.246 192.678 Z " fill="rgb(255,212,34)"/><path d=" M 347.741 177.305 L 306.083 88.928 C 305.202 87.06 303.817 85.502 302.097 84.444 L 179.264 8.909 C 177.696 7.945 175.943 7.455 174.185 7.433 L 174.185 30.558 L 289.057 101.198 L 329.366 186.711 C 331.859 191.999 337.992 194.18 343.067 191.583 C 348.141 188.985 350.234 182.593 347.741 177.305 L 347.741 177.305 Z " fill="rgb(238,191,0)"/><path d=" M 93.81 251.46 L 254.997 251.46 L 254.997 350.204 L 93.81 350.204 L 93.81 251.46 Z " fill="rgb(36,132,73)"/><path d=" M 174.185 251.46 L 254.997 251.46 L 254.997 350.204 L 174.185 350.204 L 174.185 251.46 Z " fill="rgb(31,112,62)"/><path d=" M 254.997 241.115 L 93.81 241.115 C 88.167 241.115 83.592 245.747 83.592 251.46 L 83.592 360.549 L 265.215 360.549 L 265.215 251.46 C 265.215 245.747 260.64 241.115 254.997 241.115 Z  M 154.665 300.832 L 104.028 331.853 L 104.028 269.811 L 154.665 300.832 Z  M 130.436 261.805 L 218.372 261.805 L 174.403 288.74 L 130.436 261.805 Z  M 174.403 312.924 L 218.371 339.859 L 130.436 339.859 L 174.403 312.924 Z  M 194.141 300.832 L 244.779 269.811 L 244.779 331.853 L 194.141 300.832 Z " fill="rgb(255,212,34)"/><path d=" M 254.997 241.115 L 174.185 241.115 L 174.185 261.805 L 218.372 261.805 L 174.403 288.74 L 174.185 288.607 L 174.185 313.057 L 174.403 312.924 L 218.371 339.859 L 174.185 339.859 L 174.185 360.549 L 265.215 360.549 L 265.215 251.46 C 265.215 245.747 260.64 241.115 254.997 241.115 L 254.997 241.115 Z  M 244.779 331.853 L 194.141 300.832 L 244.779 269.811 L 244.779 331.853 Z " fill="rgb(238,191,0)"/></g><defs><filter id="XYiuwbMfcH3k9VIKtFopOJcaLMPgb4y6" x="-200%" y="-200%" width="400%" height="400%" filterUnits="objectBoundingBox" color-interpolation-filters="sRGB"><feGaussianBlur xmlns="http://www.w3.org/2000/svg" in="SourceGraphic" stdDeviation="4.293609062839028"/><feOffset xmlns="http://www.w3.org/2000/svg" dx="5" dy="5" result="pf_100_offsetBlur"/><feFlood xmlns="http://www.w3.org/2000/svg" flood-color="#000000" flood-opacity="0.4"/><feComposite xmlns="http://www.w3.org/2000/svg" in2="pf_100_offsetBlur" operator="in" result="pf_100_dropShadow"/><feBlend xmlns="http://www.w3.org/2000/svg" in="SourceGraphic" in2="pf_100_dropShadow" mode="normal"/></filter></defs></g></g></svg>